<svg width="877" height="278" viewBox="0 0 877 278" fill="none" xmlns="http://www.w3.org/2000/svg">
<g filter="url(#filter0_d_18_6)">
<path d="M836.587 113.495C843.006 113.495 848.507 118.657 848.507 125.338C848.507 131.715 843.311 137.181 836.587 137.181C830.169 137.181 824.667 132.019 824.667 125.338C824.667 118.657 830.169 113.495 836.587 113.495Z" fill="white"/>
<path d="M813.052 21.4844C819.471 21.4844 824.972 26.6467 824.972 33.3272C824.972 39.7042 819.776 45.1701 813.052 45.1701C806.633 45.1701 801.132 40.0078 801.132 33.3272C801.132 26.6467 806.633 21.4844 813.052 21.4844Z" fill="white"/>
<path d="M742.448 100.134C748.866 100.134 754.368 105.296 754.368 111.977C754.368 118.354 749.172 123.82 742.448 123.82C736.029 123.82 730.527 118.657 730.527 111.977C730.527 105.296 735.723 100.134 742.448 100.134Z" fill="white"/>
<path d="M113.426 77.3594H113.732L114.343 84.3436L114.648 85.2546L114.954 89.5059L115.26 92.2389L115.565 94.0609C115.565 94.6682 115.565 95.2755 115.871 95.8828V96.7938C115.871 98.3121 116.177 100.134 116.482 101.652V103.171L116.788 104.082V105.904C117.094 106.511 117.094 107.118 117.094 108.029L117.399 111.066C117.705 111.977 117.705 112.888 117.705 114.103L118.011 114.71L118.316 119.569L118.622 120.176V121.998C118.928 123.516 119.233 125.338 119.233 126.856L119.539 127.767L119.845 132.626C120.15 133.233 120.15 133.841 120.15 134.448C120.15 135.055 120.15 135.966 120.15 136.574L120.761 142.343L121.067 143.862L121.373 147.506C121.678 148.72 121.678 149.631 121.678 150.846L121.984 151.757C121.678 153.275 121.984 155.097 122.595 156.616V158.437L122.901 159.348V161.474C123.207 162.081 123.207 162.689 123.207 163.296C123.207 163.903 123.207 164.814 123.512 165.422L124.124 172.102C124.429 173.013 124.429 173.621 124.429 174.532L125.041 178.783L125.346 181.516L125.957 187.285L126.263 190.018L126.569 191.84L126.874 193.966V195.484L127.18 196.395L127.791 203.987L128.097 205.202V210.06L125.041 210.668H123.512L121.678 210.971L119.845 211.275C118.316 211.579 117.094 211.579 115.565 211.882C114.343 212.186 112.815 212.49 111.592 212.49L104.562 212.793C103.951 212.793 103.34 212.793 102.728 213.097H101.506L100.283 213.401L97.2266 213.704V200.95C97.2266 199.128 97.2266 197.306 96.921 195.484L97.2266 194.573V169.066L96.921 167.244L96.3097 169.369C96.004 170.28 95.6984 170.888 95.3927 171.799C94.7814 172.71 94.4758 173.924 94.4758 175.139L93.8645 176.05L92.9476 178.783C92.6419 179.998 92.3363 181.212 92.0306 182.123L89.8911 188.5C89.2798 189.715 88.9741 191.233 88.6685 192.448L89.2798 192.751L87.4459 198.825C87.1403 200.647 86.529 202.165 85.9177 203.683L84.0838 209.453L83.7782 210.364L81.6386 216.437C81.6386 216.437 81.333 216.741 81.0273 217.045L77.0539 209.757C76.7483 209.453 76.7483 209.149 76.4426 208.846L73.0805 202.772L72.7749 201.861L70.024 197.003C69.7184 195.788 69.1071 194.877 68.1902 193.966L67.8845 192.751C67.2732 191.84 66.6619 190.929 66.3563 189.715L65.1337 187.589L64.828 186.982L60.8546 179.998C60.549 179.39 60.2433 178.783 59.9377 178.176L58.1038 175.139L57.4925 177.872L57.1869 179.087L56.2699 182.123V183.034L53.8247 193.359C53.2134 194.877 52.9078 196.092 52.9078 197.61L52.6022 198.825L52.2965 200.647L51.6852 202.469L51.3796 203.683L50.7683 205.809V207.024L50.157 209.149C50.157 210.06 49.8513 210.971 49.5457 211.882C48.6287 211.882 47.4062 211.579 46.4892 211.275H45.8779L41.5989 210.668C40.0706 210.364 38.848 210.364 37.9311 210.06C37.6254 210.06 37.3198 209.757 37.0142 210.06C36.7085 210.06 36.4029 210.06 35.7916 209.757C34.8746 209.757 33.9577 209.453 33.0407 209.149L31.2069 208.846L29.0673 208.542H28.1504C28.1504 206.113 28.456 203.683 29.0673 201.254L29.373 200.039L29.6786 199.432L31.8182 186.982L32.1238 185.767L32.4294 183.945C32.7351 183.034 32.7351 182.427 32.7351 182.123C32.7351 181.82 33.0407 181.516 33.0407 181.212V179.998C33.3464 178.783 33.652 177.265 33.9577 176.05C33.9577 174.532 34.2633 173.317 34.569 171.799V171.191L35.1803 167.851L35.4859 166.636L35.7916 165.725L36.7085 159.652C37.3198 159.348 37.3198 159.045 37.3198 158.741C37.6254 157.526 37.6254 156.616 38.2367 155.401V154.49C38.5424 153.275 38.848 151.757 38.848 150.542L39.4593 148.417L39.765 146.291L40.6819 142.04L40.9876 140.521L41.5989 136.27C41.9045 135.359 41.9045 134.752 41.9045 134.448C41.9045 134.144 42.2102 133.537 42.2102 133.233L42.5158 132.019C42.5158 131.411 42.8214 131.108 42.8214 130.5C42.8214 129.286 43.1271 128.071 43.7384 126.856L44.044 125.338L44.3497 121.998L44.961 120.48L45.2666 118.961L45.5723 116.836C45.8779 116.228 45.8779 115.317 46.1836 114.71L46.7949 109.851L47.1005 108.029L47.4062 106.815L48.0174 104.993L48.3231 102.867L49.24 98.9195L49.5457 97.7048L49.8513 96.4902L49.5457 95.8828L50.4626 92.5425V91.3279L50.7683 90.1132L51.3796 88.2913C52.2965 89.8096 53.2134 92.8462 54.7417 97.7048C55.0473 98.6158 55.353 99.5268 55.6586 100.438L57.1869 105.6L57.4925 106.511L58.7151 109.851L59.0207 111.066C59.632 112.281 59.9377 113.799 60.2433 115.014C60.549 115.925 60.8546 116.836 61.1603 118.05L61.4659 118.658C61.7716 120.176 62.0772 121.694 62.9942 123.213C63.2998 124.731 63.6054 125.946 64.2167 127.464L64.5224 128.375L65.4393 131.108L65.745 132.019L67.8845 139.003L68.1902 140.218L68.4958 141.129L73.3862 156.312C73.6918 157.83 73.9974 159.348 74.6087 160.563L74.9144 161.474L75.8313 164.207C76.137 165.118 76.4426 166.333 76.7483 167.244L79.4991 160.259L80.416 158.437L85.0007 147.202C85.3064 146.595 85.612 145.684 85.9177 145.076L89.8911 135.055C90.808 133.841 91.1137 132.626 91.725 131.108C92.0306 130.197 92.3363 129.589 92.6419 128.982L94.7814 123.82L95.3927 121.998L96.921 118.354L97.5323 117.747L98.7549 114.406C99.3661 113.192 99.9774 111.977 100.589 110.459L101.506 108.94C101.811 108.029 102.117 107.118 102.423 106.207L106.702 95.5792L107.619 93.7572L107.924 92.8462C108.23 92.5425 108.23 92.2389 108.536 91.9352L109.147 89.8096L109.758 89.2022L110.675 86.7729C110.981 85.8619 111.286 84.6473 111.898 83.7363L113.426 77.3594Z" fill="white"/>
<path d="M173.333 117.442H173.944C173.638 118.961 173.333 120.175 173.027 121.39L171.193 127.16L170.888 128.071L170.582 128.678L165.692 144.165V144.468L163.246 151.756L162.941 152.06L161.718 156.008L161.413 156.615V157.222L159.579 162.992C159.273 163.903 158.967 164.814 158.662 166.029L157.134 170.583L156.828 171.191L156.522 172.102V173.013L154.383 179.39L154.077 179.997L150.409 192.144C150.104 193.055 149.798 193.966 149.492 195.18L146.742 203.986C146.13 205.201 145.825 206.719 145.519 207.934L140.629 223.421C140.323 224.028 140.323 224.636 139.712 225.243V226.154L139.406 227.065C139.1 227.976 138.795 228.887 138.489 230.101L136.961 234.353C136.961 234.96 136.655 235.871 136.35 236.478L136.044 237.389L135.738 237.997L135.127 239.211V239.819L134.821 241.033L134.516 241.641L134.21 242.855C132.682 242.248 131.154 241.337 129.931 240.122L128.403 238.908L128.097 238.604L126.874 237.997L126.569 237.693L123.512 235.567L122.29 234.656L120.456 233.442C119.845 232.834 119.233 232.531 118.622 231.923L118.316 231.62C118.622 230.405 118.928 228.887 119.539 227.672L120.762 224.028L121.373 221.599C121.678 220.688 121.984 219.777 122.29 218.866L122.595 217.651L122.901 217.044L126.569 205.505C126.569 204.594 126.874 203.683 127.486 202.772V202.164L129.625 196.091L129.931 195.484C130.237 194.573 130.542 193.966 130.542 193.055C130.542 192.447 130.848 191.84 131.154 190.929L131.459 190.018L131.765 189.107C131.765 188.803 132.07 188.5 132.07 188.5L133.599 183.641V183.034C134.21 181.819 134.516 180.604 134.516 179.693L134.821 178.782V178.175L135.127 176.657L131.459 170.28C131.154 169.672 130.542 169.065 130.237 168.458L129.625 167.85L129.014 166.029C128.403 165.421 128.097 164.814 127.791 163.903L126.874 162.385C126.569 161.777 125.958 161.17 125.652 160.259L124.735 158.741L124.124 157.83L120.456 151.756L120.15 151.453L119.845 150.542L118.011 147.809C117.705 147.201 117.399 146.594 117.399 145.987L122.29 142.95C122.901 142.646 123.512 142.343 124.124 142.039L135.738 135.055L136.35 134.751L137.572 138.395L138.795 141.432L139.406 142.95L142.462 152.364L142.768 153.275L144.296 157.526L144.908 158.437C144.908 157.83 145.213 156.919 145.519 156.311V155.704L146.13 153.578C146.436 152.667 146.436 151.756 147.047 151.149L149.187 143.254V142.95L151.021 135.966L151.326 134.751L153.16 128.982V128.374C153.16 128.071 153.466 127.767 153.466 127.767C153.771 127.16 153.771 126.552 154.077 125.945C154.077 125.641 154.383 125.338 154.077 125.338L163.858 121.086L165.386 120.479L166.609 119.872L168.442 118.961C169.054 118.657 169.665 118.657 170.276 118.353L172.11 117.746L173.333 117.442Z" fill="white"/>
<path d="M236.601 69.4638H237.213L239.658 75.5371L239.964 76.4481L247.605 97.4008C247.91 97.7045 248.216 98.3118 248.216 98.9192L250.356 104.385V106.207L247.299 110.155C246.688 110.458 246.382 111.066 245.771 111.673L242.103 116.228L241.186 117.139L240.269 118.05C238.741 119.568 237.518 120.783 236.601 122.605L233.851 125.642C233.239 126.553 232.628 127.464 231.711 128.071L227.432 133.537C227.126 133.84 226.821 134.144 226.515 134.448L216.429 147.202C217.346 148.113 217.957 149.024 218.874 149.935L221.013 152.06L221.319 152.668C222.236 153.275 222.847 154.186 223.459 155.097C224.681 156.312 225.904 157.526 226.821 159.045L228.043 160.563L229.266 161.474C229.877 162.081 230.488 162.688 230.794 163.296C231.711 163.903 232.322 164.814 232.934 165.725L233.851 166.636L236.601 169.976L239.047 172.709L240.269 174.228L240.88 174.835C242.103 176.05 243.02 177.264 243.937 178.479C244.548 179.39 245.16 179.997 245.771 180.605C244.854 182.427 243.631 183.945 242.409 185.463L241.797 186.071L240.88 187.285C240.269 187.589 239.964 188.196 239.658 188.804L234.462 195.18L233.239 197.002L232.934 198.217L232.017 199.128C231.1 197.913 230.183 197.002 229.572 195.788L228.349 193.966L226.821 191.84C226.209 190.929 225.598 190.018 224.987 189.107L224.376 188.196L221.013 183.338L220.708 182.73L213.067 171.495L212.455 170.887L211.233 168.762L208.176 164.51L207.259 162.992L206.037 161.17C205.425 163.296 205.425 165.725 205.731 168.154V171.495C206.037 172.102 206.037 172.709 206.037 173.317L206.342 183.034C206.648 184.249 206.648 185.463 206.648 186.374L206.954 191.84C206.954 193.055 206.954 193.966 207.259 194.877L207.565 204.898L202.063 207.934L201.452 208.542L194.728 213.097L193.505 214.008L192.588 214.311L188.615 216.741H187.392L186.475 211.275L185.864 209.453L185.558 207.934L185.253 206.416C184.947 204.898 184.947 203.379 184.336 201.557C184.336 200.343 184.03 198.824 183.419 197.61L183.113 195.484L182.808 193.662C182.196 191.84 181.891 189.715 181.891 187.893L181.585 186.374L180.668 182.427C180.668 181.516 180.362 180.605 180.057 179.694L179.751 177.872C179.445 176.657 179.445 175.442 179.445 174.835C179.445 174.228 179.14 173.62 179.14 173.013L178.528 170.887C178.223 169.976 178.223 169.369 178.223 168.458L178.528 167.547L178.223 166.636C178.223 165.725 177.917 164.814 177.612 163.903V162.992C177.306 161.474 177 159.955 176.695 158.437L176.389 157.526L175.166 149.935C174.861 148.72 174.555 147.202 174.249 145.683C173.944 144.469 173.944 143.558 173.944 142.95C173.944 142.343 173.638 141.736 173.638 141.128L172.11 132.929V132.018C171.804 131.715 171.804 131.411 171.804 131.107L170.887 126.856L169.97 123.212C169.665 122.301 169.665 121.694 169.665 120.783L169.359 118.961L169.053 117.443C168.748 116.532 168.748 115.621 168.442 115.013C168.748 114.71 168.748 114.102 168.748 113.495C168.442 112.584 168.442 111.977 168.136 111.066L167.831 109.851L167.525 108.029V106.814L167.22 104.992C166.914 104.081 166.608 102.867 166.608 101.956C166.303 100.437 165.997 98.9192 165.691 97.4008L165.386 96.4899L164.774 93.1496L164.469 92.2386L163.552 86.7726V85.558V82.825C164.774 82.5213 166.303 82.2177 167.525 82.2177L172.11 81.3067C173.638 81.3067 174.861 81.003 176.389 80.6994C177.917 80.3957 179.14 80.092 180.668 80.092L190.143 78.5737L191.977 77.9664C192.588 77.9664 193.2 77.9664 193.811 77.6627C194.728 77.6627 195.645 77.3591 196.867 77.0554L199.924 76.7517L201.758 76.4481L202.063 83.736C202.369 84.9506 202.369 86.1653 202.369 87.0763L202.98 101.045C203.286 103.17 203.286 105.296 203.286 107.118L203.592 108.029L203.897 118.657C204.203 119.568 204.203 120.783 204.203 121.694L204.508 122.909L211.844 110.155C212.15 109.851 212.455 109.547 212.455 109.244C212.761 108.94 213.067 108.333 213.067 108.029L214.9 104.689L216.429 102.563L221.013 95.2752L221.93 93.7569L225.904 87.0763L226.821 85.8616L230.794 79.4847C231.1 79.181 231.1 78.8774 231.405 78.5737L232.934 76.1444C233.545 75.5371 233.851 74.6261 234.156 73.7151L237.213 69.1602L236.601 69.4638Z" fill="white"/>
<path d="M254.941 113.799C252.19 107.726 254.024 102.563 260.137 98.3121C269 94.6682 275.113 96.7938 278.17 104.082C280.004 111.37 276.336 116.532 267.472 118.658C262.887 119.265 258.608 117.747 254.941 113.799ZM257.08 125.034C259.525 125.338 261.97 125.945 264.11 127.16L267.166 128.071C268.389 128.375 269.612 128.982 270.834 129.589L279.087 132.019L279.392 138.092L279.087 139.307L279.392 142.951L279.087 143.862C279.392 145.684 279.698 147.202 279.392 149.024L279.698 157.526L279.392 158.437L279.698 162.385L279.392 162.992L279.698 166.333L279.392 167.851L279.698 171.191L279.392 173.013L279.698 181.516L280.309 182.731L280.615 190.626L280.309 191.84L280.921 200.95L280.309 201.558C278.17 201.558 276.336 201.558 274.196 200.95C271.446 200.343 269 200.039 266.25 199.736L264.416 199.432H263.499L257.08 125.034Z" fill="white"/>
<path d="M324.017 73.1074L325.24 72.8037L329.519 73.1074L330.741 73.411L344.495 74.6257C345.107 76.4477 345.412 78.2697 345.412 80.0916L346.024 84.3429V85.5576L346.635 91.6308V92.8455C346.635 93.7565 346.635 94.6675 346.941 95.2748C346.941 95.8821 346.941 97.4004 347.246 99.8297C347.552 101.348 347.552 103.17 347.552 104.688V105.599L347.857 107.118L348.163 112.584V114.406L348.469 116.228V118.05L348.774 123.515L349.08 125.337L349.386 128.07V129.589L349.691 131.714C349.691 132.625 349.691 133.536 349.691 134.144L349.997 136.269V139.61C350.303 140.521 350.303 141.432 350.303 142.646L350.608 144.165V145.076L350.914 148.416L351.22 150.238V151.452V152.971L351.525 156.007V157.526L351.831 159.348L352.136 161.17C351.831 161.473 352.136 162.081 352.442 162.992C352.442 164.51 352.442 166.028 352.748 167.547V168.761V171.494V172.102V174.227L353.053 175.138V176.657V177.871C353.053 178.479 353.053 179.086 353.053 179.693L353.665 186.07C353.665 187.285 353.97 188.499 353.97 189.714C352.136 190.018 350.608 190.018 348.774 189.714L342.661 189.107H341.744H339.911L338.994 187.588C331.047 197.002 320.961 199.735 308.429 195.484C297.731 190.321 291.618 181.211 290.09 168.154C289.173 156.311 294.064 146.898 304.456 139.61C313.931 134.144 323.711 135.055 334.103 141.735L333.798 139.002V137.18V135.358L333.492 134.447C333.186 133.233 333.186 132.018 333.186 131.107L332.881 130.196L330.741 126.856C330.436 125.337 330.13 123.819 330.13 122.908L330.436 122.301C330.13 121.39 330.13 120.175 329.824 118.961L329.519 116.228V115.013C329.213 112.887 328.907 110.762 328.602 108.332L327.99 103.474V102.866L327.685 99.5261L327.379 98.0078V97.0968C327.073 96.1858 327.073 95.2748 327.073 94.0601C327.073 93.1491 327.073 92.5418 326.768 91.6308C326.462 91.0235 326.462 90.4162 326.462 89.8089L325.851 84.3429C325.851 83.7356 325.851 83.1283 325.545 82.2173L325.24 80.3953L324.934 78.5733L324.323 74.9294L324.628 74.322L324.017 73.1074ZM316.681 151.756C315.153 151.756 313.625 151.756 312.097 152.06C307.206 156.007 305.373 161.473 306.289 168.154C306.595 174.531 309.652 179.693 315.459 183.033C316.987 183.337 318.515 183.033 320.044 182.73C324.934 178.782 326.768 173.316 325.851 166.636C325.851 160.259 322.489 155.4 316.681 151.756Z" fill="white"/>
<path d="M386.369 94.971C398.9 94.06 411.432 96.793 423.963 103.474L417.545 118.96L416.322 121.997C415.711 123.212 415.099 124.73 414.488 125.945C396.761 113.798 384.84 121.39 379.033 149.327L378.116 152.363V153.274L377.199 157.526C377.811 168.761 381.784 179.086 388.508 189.107L392.176 192.751L395.844 195.18C396.455 195.484 397.066 195.787 397.678 196.091L400.123 197.002L403.179 197.609L404.096 197.913H405.624L406.236 198.217L411.737 197.913C412.043 197.609 412.349 197.306 412.654 197.002L411.737 194.269L411.432 192.447L411.126 191.536C411.126 190.625 410.82 189.714 410.515 188.803V187.892C410.209 186.981 409.903 186.07 409.903 185.159L409.598 184.248C409.292 183.337 408.987 182.426 408.987 181.515L408.375 179.389V178.478L407.458 175.745C407.458 175.138 407.153 174.531 407.153 173.923C407.153 173.316 407.153 173.012 406.847 172.709C406.541 172.101 406.541 171.494 406.541 170.887L405.93 170.583L404.096 171.494C403.485 171.798 402.874 172.101 401.957 172.405L401.04 172.709L395.232 175.442L393.704 171.494C393.399 170.583 393.093 169.672 392.787 168.761L391.259 164.51C390.953 163.599 390.648 162.992 390.342 162.081L387.897 155.4L387.591 154.185L396.761 150.845L398.595 150.238C399.511 149.63 400.734 149.327 401.957 149.023L420.295 142.039C421.824 141.735 423.352 141.128 424.88 140.217L425.491 139.913L430.687 138.091L433.133 145.379C433.438 146.29 433.744 147.201 434.05 148.112L434.967 150.845L435.578 151.756L435.883 152.667L436.189 153.578L438.023 159.348L438.329 160.259C437.106 161.17 436.189 161.777 434.967 162.384L427.937 166.636L429.465 171.494C429.771 172.709 430.076 173.62 430.382 174.834C430.382 175.745 430.687 176.656 430.993 177.264L431.299 178.175L431.604 179.086L431.91 179.997L434.05 187.892C434.355 189.107 434.661 190.321 434.967 191.232L436.189 194.876L436.8 197.002L437.106 198.52L440.163 209.148C440.163 209.756 440.468 210.059 440.774 210.667L442.913 218.258L443.219 219.777C443.83 220.991 443.83 222.206 443.83 223.421C427.325 228.583 410.209 228.279 392.176 221.599L380.867 215.222C379.95 214.311 379.033 213.4 377.811 212.792L375.671 210.667C375.06 210.059 374.448 209.756 373.837 208.845L372.003 207.023L371.392 206.415C356.11 192.143 348.163 174.531 348.163 153.882C347.857 135.662 354.276 118.657 366.807 102.563H367.724C374.448 98.9186 379.95 96.1857 386.369 94.971Z" fill="white"/>
<path d="M444.136 173.013C438.634 150.542 445.053 135.662 463.392 128.981C479.591 125.641 490.9 132.322 497.319 148.416C497.93 149.631 498.847 153.578 500.375 160.259L497.013 161.17L495.485 161.777L493.956 162.384L492.428 162.992L490.9 163.599L488.76 164.206L487.843 164.51L486.01 165.117L480.814 166.636C479.285 167.243 477.757 167.547 476.229 167.85L473.784 168.458L472.255 169.065L471.033 169.369L469.505 169.976L464.92 171.494C464.003 180.301 467.059 185.463 474.089 187.285C482.342 186.677 490.594 183.641 498.235 177.568L498.847 182.73V184.552L499.152 186.981V187.892L499.764 193.965C499.152 194.573 498.235 195.18 497.319 195.787L493.956 197.306L492.428 197.913L488.455 199.128C487.538 199.128 486.926 199.431 486.01 199.735L485.398 200.039L482.953 200.95L473.172 202.468H470.116C456.667 197.306 448.109 188.196 444.136 173.013ZM479.591 150.542C477.451 144.165 472.867 142.343 465.837 144.468C461.863 148.416 460.946 153.578 463.392 160.259L481.425 154.489L479.591 150.542Z" fill="white"/>
<path d="M555.391 125.034H556.92C556.92 125.945 556.92 127.16 556.614 128.071L556.003 130.804L555.697 132.322L555.086 134.448V135.359C554.78 135.662 554.78 135.966 554.78 136.27L554.169 139.306L553.863 140.217L553.558 141.128L553.252 143.254C552.946 144.165 552.641 145.076 552.641 145.987C552.335 147.202 552.029 148.416 551.724 149.631L551.418 150.238C551.418 151.149 551.112 152.06 550.807 152.971V153.579V155.401C550.501 156.008 550.501 156.615 550.501 157.526L549.89 159.044L549.584 160.563L549.279 162.081C548.973 162.688 548.973 163.296 548.973 164.207C548.973 164.207 548.667 164.814 548.667 165.725L548.362 166.94C548.056 167.547 548.056 168.154 547.75 168.458C547.75 169.369 547.445 170.28 547.139 171.191L546.833 172.709L546.528 174.228L545.611 178.175L545.305 179.39L545 180.301C545 181.212 544.694 182.123 544.388 183.034L543.471 187.589L543.166 188.5L542.86 189.714V190.625L542.249 192.144L541.943 193.662L541.637 195.484L541.332 196.699L540.415 200.039V200.95C540.109 201.861 539.803 202.772 539.803 203.379L539.498 204.29C539.192 204.898 539.192 205.505 539.192 205.809L538.581 207.327L538.275 208.845L536.136 205.505L535.83 205.201C534.302 202.772 533.079 200.646 531.857 198.824L531.551 197.913C530.328 196.395 529.411 194.877 528.495 193.358L528.189 193.055L527.883 192.144L526.355 189.714L525.744 188.803L521.465 181.516L521.159 181.212L519.325 177.872L518.714 176.961V178.175V179.997C519.019 180.605 519.019 181.516 519.019 182.123L519.325 183.034L519.631 183.945C519.631 185.16 519.936 185.767 519.936 186.374L520.242 187.285L520.853 191.84C520.853 192.447 521.159 192.751 521.159 193.358V194.269C521.465 194.877 521.465 195.484 521.465 196.395C521.77 197.61 521.77 198.521 521.77 199.735L522.076 200.95V201.861L522.687 206.112C522.993 207.327 522.993 208.238 523.299 209.453L523.604 211.275V212.793L521.159 213.097H520.548L517.186 213.704H515.963H515.046L514.129 214.008C511.684 214.311 509.85 214.311 508.322 214.615L507.405 214.919L506.182 215.222V213.097V211.578V210.06V208.542C506.182 207.327 506.182 206.416 506.182 205.505L505.877 205.201C505.877 203.683 505.877 202.772 505.877 201.861C505.571 200.646 505.571 199.432 505.571 198.217L505.265 196.699L504.96 195.788L504.654 188.5V187.892V186.374C504.348 186.07 504.348 185.463 504.348 185.16C504.348 184.249 504.348 183.641 504.348 182.73L504.043 182.427V181.212L503.737 180.605V179.086C503.737 178.479 503.737 177.872 503.737 177.568L503.431 176.05L503.126 170.887V169.976L502.82 169.065V167.547C502.515 166.332 502.515 165.118 502.515 163.903V162.385L502.209 161.474V160.259L501.903 159.652V156.919V154.793L501.598 153.275V152.364C501.598 151.149 501.598 149.631 501.292 148.416V146.291V144.165V142.647V141.128V140.217C501.292 139.003 501.292 138.092 500.986 137.484V136.573L500.681 133.537V132.626L500.375 131.715V129.589C501.292 130.5 501.903 131.411 502.515 132.626L504.654 135.359L504.96 135.966C505.571 136.573 506.182 137.484 506.794 138.395L508.322 140.521C508.627 141.128 509.239 141.736 509.544 142.343L510.461 143.861L511.073 144.772L513.212 147.505L515.352 150.542L516.269 151.453L518.103 154.186L519.325 156.008C519.631 156.615 520.242 157.222 520.548 157.83L523.299 161.474C523.91 162.081 524.215 162.688 524.827 163.296L527.578 167.243L528.495 168.458C529.106 169.369 529.717 169.976 530.023 170.28L532.162 173.317L533.079 174.531L533.691 161.474C533.996 160.259 533.996 158.741 533.996 157.526L534.607 145.38L534.913 144.165L535.83 129.589C536.747 129.285 537.97 128.982 538.887 128.982C540.109 128.678 541.332 128.374 542.249 128.374C543.166 128.071 544.388 128.071 545.305 127.767H546.222L548.362 127.16L549.279 126.856C552.641 125.642 554.169 125.338 555.391 125.034Z" fill="white"/>
<path d="M559.059 113.799C556.308 107.726 558.142 102.563 564.255 98.3121C573.119 94.6682 579.232 96.7938 582.288 104.082C584.122 111.37 580.454 116.532 571.59 118.658C566.7 119.265 562.727 117.747 559.059 113.799ZM560.893 125.034C563.338 125.338 565.783 125.945 567.923 127.16L570.979 128.071C572.202 128.375 573.424 128.982 574.647 129.589L582.899 132.019V138.092V139.307L583.205 142.951L582.899 143.862C583.205 145.684 583.205 147.202 583.205 149.024L583.511 157.526L583.205 158.437L583.511 162.385L583.205 162.992L583.511 166.333L583.205 167.851L583.511 171.191L583.205 173.013L583.511 181.516L584.428 182.731L584.733 190.626L584.428 191.84L585.039 200.95L584.428 201.558C582.288 201.558 580.454 201.558 578.315 200.95C575.564 200.343 573.119 200.039 570.368 199.736L568.534 199.432L567.311 199.128L560.893 125.034Z" fill="white"/>
<path d="M631.498 123.516H650.448C650.448 124.427 650.754 125.641 650.754 126.552L651.059 127.767V129.285L651.365 129.893V149.327L651.059 150.238L650.448 156.008L649.837 159.955V160.563L649.531 162.688L649.225 163.903L648.92 165.117C648.614 166.028 648.308 167.243 648.003 168.154L646.78 171.798V172.405C646.475 173.316 646.169 174.531 645.558 175.442L643.724 179.693C643.112 180.908 642.501 181.819 641.584 182.73L638.528 186.981L638.222 187.285C635.166 190.018 631.498 192.144 627.524 193.055L625.691 193.966C624.774 194.573 623.857 194.876 622.634 195.18L620.495 195.787H613.77C612.548 195.484 611.325 195.18 610.103 194.573C606.129 192.144 602.767 188.5 600.628 184.552L598.794 180.301L598.488 179.086L598.182 178.479L596.96 175.138L596.348 172.709V172.102L595.737 170.28V169.369V168.761L595.126 166.939C595.126 166.636 595.126 166.028 594.82 165.725C594.515 164.814 594.515 164.207 594.515 163.296C594.209 162.385 594.209 161.474 594.209 160.259L593.903 159.044L593.598 158.437V156.615C593.292 155.704 593.292 155.097 593.292 154.186C592.986 153.275 592.986 152.06 593.292 151.149L592.986 150.845V137.484L596.348 136.573C596.654 136.269 597.265 136.269 597.571 136.269L599.099 135.662L600.628 135.358C601.544 135.358 602.156 135.055 602.767 134.751L611.631 132.322L612.548 132.018L616.215 131.107C616.215 132.322 616.216 133.537 615.91 134.751L615.604 135.662L614.993 140.217L614.687 141.735L614.382 143.254V145.076L614.076 145.683L613.77 149.023C613.77 149.327 613.77 149.934 613.77 150.238C613.77 150.845 613.77 151.149 613.465 151.756V155.704L613.159 156.008C613.159 157.526 613.159 158.741 613.465 160.259V163.296L613.77 164.814V165.421C613.77 166.332 614.076 167.547 614.382 168.458L615.299 171.191L616.827 173.924C617.744 174.531 618.355 175.138 619.578 175.746C620.8 176.049 622.328 176.049 623.551 175.746L625.691 174.227C627.219 172.405 628.441 170.583 629.053 168.458L629.358 168.154C629.358 167.547 629.664 167.243 629.664 166.636L629.97 165.117L630.275 164.207L630.581 162.992C630.581 161.777 630.887 160.259 631.192 159.044V158.437L631.498 158.133C631.498 156.919 631.803 155.704 631.803 154.793V152.667C631.803 151.756 631.804 150.845 632.109 149.631L631.803 131.411C631.803 130.804 631.803 129.893 631.803 129.285L631.498 125.338C631.498 124.73 631.498 124.427 631.498 123.516Z" fill="white"/>
<path d="M710.354 134.751C715.856 136.27 721.052 139.003 725.025 143.254L723.191 145.38C722.886 145.987 722.58 146.291 721.969 146.594L721.358 147.202C721.052 147.505 720.746 147.809 720.441 148.113C720.135 148.416 719.829 148.416 719.524 149.024L714.939 152.668C714.328 152.971 713.716 153.579 713.105 154.186L711.577 155.401C711.271 155.704 710.966 156.008 710.66 156.312L705.77 155.097L704.853 154.793L703.019 154.49C702.408 154.49 701.491 154.49 700.879 154.186H700.268H694.766L692.627 154.793H692.321L691.099 155.097L688.653 156.008C688.042 156.312 687.431 156.615 686.82 157.222L686.208 157.526C687.125 159.348 688.653 160.563 690.182 161.474C690.793 161.777 691.404 162.081 692.015 162.385L692.627 162.688L693.544 162.992C693.849 163.296 694.155 163.296 694.766 163.599L696.295 164.51L699.045 165.421L699.962 165.725L703.63 167.243L703.936 167.547L704.853 167.851C705.464 168.154 706.075 168.458 706.687 168.762L709.437 170.28C710.354 170.584 711.271 171.191 711.883 171.798L715.856 174.531L716.467 175.139L717.079 175.746L717.69 176.353L719.218 178.175L719.524 178.783L720.135 179.39L720.746 180.301L721.663 181.819C721.969 182.427 722.275 183.034 722.58 183.945V184.552L722.886 186.071V187.893L723.191 188.5L722.886 191.233C722.886 191.536 722.886 191.84 722.58 192.144L722.275 192.751V193.055L721.969 193.966C721.663 194.573 721.052 195.18 720.746 195.788L720.441 196.091C720.135 196.699 719.829 197.002 719.524 197.61V197.913L718.607 199.128C717.995 199.735 717.69 200.039 717.079 200.646C703.936 210.364 688.348 212.793 670.62 207.934C669.703 207.631 668.481 207.631 667.564 207.327L662.979 205.809C662.062 205.505 661.451 205.201 660.534 204.898L658.7 204.29L657.783 203.683L656.255 203.076C656.255 203.076 655.949 202.772 655.338 202.772L654.727 202.468L655.644 201.254V200.95L656.866 199.128C657.172 198.521 657.477 197.61 658.089 197.002C658.394 196.395 658.7 195.788 659.006 195.18L659.923 193.055C660.228 192.751 660.534 192.447 660.534 191.84C660.839 191.233 661.451 190.625 661.756 189.714L662.368 188.803L662.673 188.196L663.285 186.982C663.59 186.374 664.202 185.767 664.202 185.16L664.507 184.856C675.816 193.662 687.736 194.877 700.574 188.196L701.491 187.285C699.962 185.767 698.128 184.552 695.683 183.945C694.766 183.945 694.155 183.641 693.544 183.338C684.68 182.427 676.122 179.086 669.092 173.924L664.202 168.762L662.368 165.725L662.062 165.421L661.451 164.207C661.145 163.599 660.839 162.992 660.534 162.385L660.228 161.777L659.923 161.474L659.617 160.866V160.259L665.424 144.469L670.315 140.825C683.152 133.84 695.989 132.322 710.354 134.751Z" fill="white"/>
</g>
<defs>
<filter id="filter0_d_18_6" x="0.150391" y="0.484375" width="876.357" height="277.371" filterUnits="userSpaceOnUse" color-interpolation-filters="sRGB">
<feFlood flood-opacity="0" result="BackgroundImageFix"/>
<feColorMatrix in="SourceAlpha" type="matrix" values="0 0 0 0 0 0 0 0 0 0 0 0 0 0 0 0 0 0 127 0" result="hardAlpha"/>
<feOffset dy="7"/>
<feGaussianBlur stdDeviation="14"/>
<feColorMatrix type="matrix" values="0 0 0 0 0 0 0 0 0 0 0 0 0 0 0 0 0 0 0.11 0"/>
<feBlend mode="normal" in2="BackgroundImageFix" result="effect1_dropShadow_18_6"/>
<feBlend mode="normal" in="SourceGraphic" in2="effect1_dropShadow_18_6" result="shape"/>
</filter>
</defs>
</svg>
