<svg width="173" height="47" viewBox="0 0 173 47" fill="none" xmlns="http://www.w3.org/2000/svg">
<g clip-path="url(#clip0_13_4)">
<path d="M159.502 0.50293C162.417 0.50293 164.762 6.59785 164.762 14.138C164.762 21.6781 162.417 27.773 159.502 27.773C156.587 27.773 154.242 21.6781 154.242 14.138C154.306 6.59785 156.65 0.50293 159.502 0.50293Z" stroke="#42B9BA" stroke-width="1.574" stroke-miterlimit="10"/>
<path d="M156.65 9.8022C163.051 5.71798 169.514 4.33562 171.035 6.72332C172.62 9.11102 168.691 14.3891 162.29 18.4733C155.89 22.5575 149.426 23.9399 147.905 21.5522C146.384 19.1645 150.313 13.8864 156.65 9.8022Z" stroke="#FCD10A" stroke-width="1.574" stroke-miterlimit="10"/>
<path d="M148.983 6.09505C150.567 3.70735 157.031 5.0897 163.431 9.23676C169.832 13.3838 173.697 18.7247 172.113 21.1124C170.529 23.5001 164.065 22.1178 157.665 17.9707C151.264 13.8237 147.399 8.54559 148.983 6.09505Z" stroke="#F05237" stroke-width="1.574" stroke-miterlimit="10"/>
<path d="M167.614 20.2324C168.945 20.2324 170.085 21.3006 170.085 22.683C170.085 24.0025 169.008 25.1335 167.614 25.1335C166.283 25.1335 165.143 24.0653 165.143 22.683C165.143 21.3006 166.283 20.2324 167.614 20.2324Z" fill="#F05237"/>
<path d="M162.734 1.19434C164.065 1.19434 165.206 2.26252 165.206 3.64487C165.206 4.96439 164.128 6.0954 162.734 6.0954C161.403 6.0954 160.263 5.02722 160.263 3.64487C160.263 2.26252 161.403 1.19434 162.734 1.19434Z" fill="#42B9BA"/>
<path d="M148.095 17.4678C149.426 17.4678 150.567 18.536 150.567 19.9183C150.567 21.2378 149.49 22.3688 148.095 22.3688C146.765 22.3688 145.624 21.3007 145.624 19.9183C145.624 18.536 146.701 17.4678 148.095 17.4678Z" fill="#FCD10A"/>
<path d="M17.6802 12.7559H17.7436L17.8703 14.201L17.9337 14.3895L17.9971 15.2692L18.0604 15.8347L18.1238 16.2117C18.1238 16.3374 18.1238 16.4631 18.1872 16.5887V16.7772C18.1872 17.0914 18.2505 17.4684 18.3139 17.7826V18.0968L18.3773 18.2853V18.6623C18.4407 18.7879 18.4407 18.9136 18.4407 19.1021L18.504 19.7305C18.5674 19.919 18.5674 20.1075 18.5674 20.3588L18.6308 20.4845L18.6941 21.4898L18.7575 21.6155V21.9925C18.8209 22.3067 18.8842 22.6837 18.8842 22.9978L18.9476 23.1863L19.011 24.1917C19.0744 24.3174 19.0744 24.443 19.0744 24.5687C19.0744 24.6944 19.0744 24.8829 19.0744 25.0085L19.2011 26.2024L19.2645 26.5166L19.3278 27.2706C19.3912 27.5219 19.3912 27.7104 19.3912 27.9617L19.4546 28.1502C19.3912 28.4644 19.4546 28.8414 19.5813 29.1556V29.5326L19.6447 29.7211V30.1609C19.7081 30.2866 19.7081 30.4123 19.7081 30.5379C19.7081 30.6636 19.7081 30.8521 19.7714 30.9778L19.8982 32.3601C19.9615 32.5486 19.9615 32.6743 19.9615 32.8628L20.0883 33.7425L20.1516 34.308L20.2784 35.5018L20.3418 36.0674L20.4051 36.4444L20.4685 36.8842V37.1984L20.5319 37.3869L20.6586 38.9577L20.722 39.2091V40.2144L20.0883 40.3401H19.7714L19.3912 40.4029L19.011 40.4657C18.6941 40.5286 18.4407 40.5286 18.1238 40.5914C17.8703 40.6542 17.5535 40.7171 17.3 40.7171L15.8425 40.7799C15.7157 40.7799 15.589 40.7799 15.4623 40.8428H15.2088L14.9553 40.9056L14.3216 40.9684V38.3294C14.3216 37.9524 14.3216 37.5754 14.2582 37.1984L14.3216 37.0099V31.7318L14.2582 31.3548L14.1315 31.7946C14.0681 31.9831 14.0048 32.1088 13.9414 32.2973C13.8147 32.4858 13.7513 32.7371 13.7513 32.9885L13.6245 33.177L13.4344 33.7425C13.3711 33.9938 13.3077 34.2452 13.2443 34.4337L12.8007 35.7532C12.674 36.0045 12.6106 36.3187 12.5473 36.57L12.674 36.6329L12.2938 37.8895C12.2304 38.2665 12.1037 38.5807 11.9769 38.8949L11.5967 40.0887L11.5333 40.2772L11.0897 41.5339C11.0897 41.5339 11.0264 41.5968 10.963 41.6596L10.1392 40.1516C10.0758 40.0887 10.0758 40.0259 10.0125 39.9631L9.31538 38.7064L9.25201 38.5179L8.68168 37.5125C8.61831 37.2612 8.49158 37.0727 8.30147 36.8842L8.23809 36.6329C8.11135 36.4444 7.98461 36.2559 7.92125 36.0045L7.66777 35.5647L7.60439 35.439L6.78059 33.9938C6.71722 33.8682 6.65385 33.7425 6.59048 33.6168L6.21026 32.9885L6.08352 33.554L6.02015 33.8053L5.83004 34.4337V34.6222L5.32308 36.7585C5.19634 37.0727 5.13297 37.324 5.13297 37.6382L5.0696 37.8895L5.00623 38.2666L4.87949 38.6436L4.81612 38.8949L4.68938 39.3347V39.5861L4.56264 40.0259C4.56264 40.2144 4.49927 40.4029 4.4359 40.5914C4.24579 40.5914 3.99231 40.5286 3.8022 40.4657H3.67546L2.78828 40.3401C2.47143 40.2772 2.21795 40.2772 2.02784 40.2144C1.96447 40.2144 1.9011 40.1516 1.83773 40.2144C1.77436 40.2144 1.71099 40.2144 1.58425 40.1516C1.39414 40.1516 1.20403 40.0887 1.01392 40.0259L0.6337 39.9631L0.19011 39.9002H0C0 39.3976 0.06337 38.8949 0.19011 38.3922L0.25348 38.1409L0.31685 38.0152L0.76044 35.439L0.823809 35.1877L0.887179 34.8107C0.950549 34.6222 0.950549 34.4965 0.950549 34.4337C0.950549 34.3708 1.01392 34.308 1.01392 34.2452V33.9938C1.07729 33.7425 1.14066 33.4283 1.20403 33.177C1.20403 32.8628 1.2674 32.6115 1.33077 32.2973V32.1716L1.45751 31.4805L1.52088 31.2291L1.58425 31.0406L1.77436 29.7839C1.9011 29.7211 1.9011 29.6583 1.9011 29.5954C1.96447 29.3441 1.96447 29.1556 2.09121 28.9043V28.7157C2.15458 28.4644 2.21795 28.1502 2.21795 27.8989L2.34469 27.4591L2.40806 27.0192L2.59817 26.1395L2.66154 25.8254L2.78828 24.9457C2.85165 24.7572 2.85165 24.6315 2.85165 24.5687C2.85165 24.5059 2.91502 24.3802 2.91502 24.3174L2.97839 24.066C2.97839 23.9403 3.04176 23.8775 3.04176 23.7518C3.04176 23.5005 3.10513 23.2492 3.23187 22.9978L3.29524 22.6837L3.35861 21.9925L3.48535 21.6783L3.54872 21.3641L3.61209 20.9243C3.67546 20.7986 3.67546 20.6101 3.73883 20.4845L3.86557 19.4791L3.92894 19.1021L3.99231 18.8508L4.11905 18.4738L4.18242 18.0339L4.37253 17.2171L4.4359 16.9658L4.49927 16.7144L4.4359 16.5887L4.62601 15.8976V15.6462L4.68938 15.3949L4.81612 15.0179C5.00623 15.3321 5.19634 15.9604 5.51319 16.9658C5.57656 17.1543 5.63993 17.3428 5.7033 17.5313L6.02015 18.5994L6.08352 18.7879L6.337 19.4791L6.40037 19.7305C6.52711 19.9818 6.59048 20.296 6.65385 20.5473C6.71722 20.7358 6.78059 20.9243 6.84396 21.1756L6.90733 21.3013C6.9707 21.6155 7.03407 21.9297 7.22417 22.2438C7.28755 22.558 7.35092 22.8093 7.47766 23.1235L7.54103 23.312L7.73113 23.8775L7.79451 24.066L8.23809 25.5112L8.30147 25.7625L8.36483 25.951L9.37875 29.0928C9.44212 29.4069 9.50549 29.7211 9.63223 29.9724L9.6956 30.1609L9.88571 30.7264C9.94908 30.9149 10.0125 31.1663 10.0758 31.3548L10.6462 29.9096L10.8363 29.5326L11.7868 27.2077C11.8502 27.0821 11.9136 26.8936 11.9769 26.7679L12.8007 24.6944C12.9908 24.443 13.0542 24.1917 13.181 23.8775C13.2443 23.689 13.3077 23.5633 13.3711 23.4377L13.8147 22.3695L13.9414 21.9925L14.2582 21.2385L14.385 21.1128L14.6385 20.4216C14.7652 20.1703 14.8919 19.919 15.0187 19.6048L15.2088 19.2906C15.2722 19.1021 15.3355 18.9136 15.3989 18.7251L16.2861 16.5259L16.4762 16.1489L16.5396 15.9604C16.6029 15.8976 16.6029 15.8347 16.6663 15.7719L16.793 15.3321L16.9198 15.2064L17.1099 14.7037C17.1733 14.5152 17.2366 14.2639 17.3634 14.0754L17.6802 12.7559Z" fill="#E14E3A"/>
<path d="M30.1006 21.0498H30.2274C30.164 21.364 30.1006 21.6153 30.0372 21.8666L29.657 23.0605L29.5936 23.249L29.5303 23.3747L28.5164 26.5792V26.6421L28.0094 28.1501L27.946 28.2129L27.6926 29.0298L27.6292 29.1554V29.2811L27.249 30.4749C27.1856 30.6634 27.1222 30.8519 27.0589 31.1033L26.742 32.0458L26.6786 32.1715L26.6153 32.36V32.5485L26.1717 33.868L26.1083 33.9937L25.3479 36.507C25.2845 36.6955 25.2211 36.884 25.1578 37.1354L24.5874 38.9576C24.4607 39.2089 24.3973 39.5231 24.3339 39.7744L23.32 42.9789C23.2567 43.1046 23.2567 43.2303 23.1299 43.356V43.5445L23.0665 43.733C23.0032 43.9215 22.9398 44.11 22.8764 44.3613L22.5596 45.241C22.5596 45.3666 22.4962 45.5551 22.4328 45.6808L22.3695 45.8693L22.3061 45.995L22.1794 46.2463V46.372L22.116 46.6233L22.0526 46.749L21.9893 47.0003C21.6724 46.8747 21.3556 46.6862 21.1021 46.4348L20.7852 46.1835L20.7219 46.1207L20.4684 45.995L20.405 45.9322L19.7713 45.4923L19.5178 45.3038L19.1376 45.0525C19.0109 44.9268 18.8841 44.864 18.7574 44.7383L18.694 44.6755C18.7574 44.4241 18.8208 44.11 18.9475 43.8586L19.201 43.1046L19.3277 42.6019C19.3911 42.4134 19.4545 42.2249 19.5178 42.0364L19.5812 41.7851L19.6446 41.6594L20.405 39.2717C20.405 39.0832 20.4684 38.8947 20.5951 38.7062V38.5806L21.0387 37.3239L21.1021 37.1982C21.1654 37.0097 21.2288 36.884 21.2288 36.6955C21.2288 36.5699 21.2922 36.4442 21.3556 36.2557L21.4189 36.0672L21.4823 35.8787C21.4823 35.8158 21.5457 35.753 21.5457 35.753L21.8625 34.7477V34.622C21.9893 34.3707 22.0526 34.1193 22.0526 33.9308L22.116 33.7423V33.6166L22.1794 33.3025L21.4189 31.983C21.3556 31.8573 21.2288 31.7316 21.1654 31.606L21.0387 31.4803L20.912 31.1033C20.7852 30.9776 20.7219 30.8519 20.6585 30.6634L20.4684 30.3493C20.405 30.2236 20.2783 30.0979 20.2149 29.9094L20.0248 29.5953L19.898 29.4068L19.1376 28.1501L19.0742 28.0872L19.0109 27.8987L18.6306 27.3332C18.5673 27.2076 18.5039 27.0819 18.5039 26.9562L19.5178 26.3279C19.6446 26.265 19.7713 26.2022 19.898 26.1394L22.3061 24.6942L22.4328 24.6314L22.6863 25.3854L22.9398 26.0137L23.0665 26.3279L23.7002 28.2757L23.7636 28.4642L24.0805 29.3439L24.2072 29.5324C24.2072 29.4068 24.2706 29.2183 24.3339 29.0926V28.9669L24.4607 28.5271C24.5241 28.3386 24.5241 28.1501 24.6508 28.0244L25.0944 26.3907V26.3279L25.4746 24.8827L25.538 24.6314L25.9182 23.4375V23.3118C25.9182 23.249 25.9816 23.1862 25.9816 23.1862C26.0449 23.0605 26.0449 22.9348 26.1083 22.8092C26.1083 22.7463 26.1717 22.6835 26.1083 22.6835L28.1361 21.8038L28.453 21.6781L28.7065 21.5525L29.0867 21.364C29.2134 21.3011 29.3402 21.3011 29.4669 21.2383L29.8471 21.1126L30.1006 21.0498Z" fill="#00B3B9"/>
<path d="M43.2187 11.1224H43.3454L43.8524 12.3791L43.9157 12.5676L45.5 16.9032C45.5634 16.966 45.6267 17.0917 45.6267 17.2173L46.0703 18.3483V18.7253L45.4366 19.5422C45.3099 19.605 45.2465 19.7307 45.1198 19.8564L44.3593 20.7989L44.1692 20.9874L43.9791 21.1759C43.6623 21.4901 43.4088 21.7414 43.2187 22.1184L42.6483 22.7467C42.5216 22.9352 42.3949 23.1237 42.2047 23.2494L41.3176 24.3804C41.2542 24.4433 41.1908 24.5061 41.1275 24.5689L39.0362 27.208C39.2264 27.3965 39.3531 27.585 39.5432 27.7735L39.9868 28.2133L40.0502 28.339C40.2403 28.4646 40.367 28.6532 40.4938 28.8417C40.7472 29.093 41.0007 29.3443 41.1908 29.6585L41.4443 29.9727L41.6978 30.1612C41.8245 30.2868 41.9513 30.4125 42.0146 30.5382C42.2047 30.6638 42.3315 30.8524 42.4582 31.0409L42.6483 31.2294L43.2187 31.9205L43.7256 32.486L43.9791 32.8002L44.1058 32.9259C44.3593 33.1772 44.5494 33.4286 44.7395 33.6799C44.8663 33.8684 44.993 33.9941 45.1198 34.1197C44.9297 34.4967 44.6762 34.8109 44.4227 35.1251L44.296 35.2507L44.1058 35.5021C43.9791 35.5649 43.9157 35.6906 43.8524 35.8163L42.7751 37.1358L42.5216 37.5128L42.4582 37.7641L42.2681 37.9526C42.078 37.7013 41.8879 37.5128 41.7612 37.2614L41.5077 36.8844L41.1908 36.4446C41.0641 36.2561 40.9373 36.0676 40.8106 35.8791L40.6839 35.6906L39.9868 34.6852L39.9234 34.5596L38.3392 32.2347L38.2124 32.109L37.959 31.6692L37.3253 30.7895L37.1351 30.4753L36.8817 30.0983C36.7549 30.5382 36.7549 31.0409 36.8183 31.5435V32.2347C36.8817 32.3604 36.8817 32.486 36.8817 32.6117L36.945 34.6224C37.0084 34.8737 37.0084 35.1251 37.0084 35.3136L37.0718 36.4446C37.0718 36.6959 37.0718 36.8844 37.1351 37.0729L37.1985 39.1465L36.0579 39.7748L35.9311 39.9005L34.537 40.843L34.2835 41.0315L34.0934 41.0943L33.2696 41.597H33.0161L32.826 40.466L32.6992 40.089L32.6359 39.7748L32.5725 39.4606C32.5091 39.1465 32.5091 38.8323 32.3824 38.4553C32.3824 38.204 32.319 37.8898 32.1923 37.6384L32.1289 37.1986L32.0655 36.8216C31.9388 36.4446 31.8754 36.0048 31.8754 35.6278L31.8121 35.3136L31.622 34.4967C31.622 34.3082 31.5586 34.1197 31.4952 33.9312L31.4319 33.5542C31.3685 33.3029 31.3685 33.0515 31.3685 32.9259C31.3685 32.8002 31.3051 32.6745 31.3051 32.5489L31.1784 32.109C31.115 31.9205 31.115 31.7949 31.115 31.6064L31.1784 31.4179L31.115 31.2294C31.115 31.0409 31.0516 30.8523 30.9883 30.6638V30.4753C30.9249 30.1612 30.8615 29.847 30.7982 29.5328L30.7348 29.3443L30.4813 27.7735C30.4179 27.5221 30.3546 27.208 30.2912 26.8938C30.2278 26.6425 30.2278 26.454 30.2278 26.3283C30.2278 26.2026 30.1645 26.0769 30.1645 25.9513L29.8476 24.2548V24.0663C29.7842 24.0034 29.7842 23.9406 29.7842 23.8778L29.5941 22.9981L29.404 22.2441C29.3406 22.0556 29.3406 21.9299 29.3406 21.7414L29.2773 21.3644L29.2139 21.0502C29.1505 20.8617 29.1505 20.6732 29.0872 20.5475C29.1505 20.4847 29.1505 20.359 29.1505 20.2334C29.0872 20.0449 29.0872 19.9192 29.0238 19.7307L28.9604 19.4794L28.8971 19.1024V18.851L28.8337 18.474C28.7703 18.2855 28.7069 18.0342 28.7069 17.8457C28.6436 17.5315 28.5802 17.2173 28.5168 16.9032L28.4535 16.7147L28.3267 16.0235L28.2634 15.835L28.0732 14.704V14.4526V13.8871C28.3267 13.8243 28.6436 13.7614 28.8971 13.7614L29.8476 13.5729C30.1645 13.5729 30.4179 13.5101 30.7348 13.4473C31.0516 13.3844 31.3051 13.3216 31.622 13.3216L33.5864 13.0074L33.9666 12.8818C34.0934 12.8818 34.2201 12.8818 34.3469 12.8189C34.537 12.8189 34.7271 12.7561 34.9806 12.6933L35.6143 12.6304L35.9945 12.5676L36.0579 14.0756C36.1212 14.3269 36.1212 14.5783 36.1212 14.7668L36.248 17.6572C36.3113 18.097 36.3113 18.5368 36.3113 18.9138L36.3747 19.1024L36.4381 21.3015C36.5014 21.4901 36.5014 21.7414 36.5014 21.9299L36.5648 22.1812L38.0857 19.5422C38.1491 19.4794 38.2124 19.4165 38.2124 19.3537C38.2758 19.2909 38.3392 19.1652 38.3392 19.1024L38.7194 18.4112L39.0362 17.9713L39.9868 16.4633L40.1769 16.1491L41.0007 14.7668L41.1908 14.5155L42.0146 13.1959C42.078 13.1331 42.078 13.0703 42.1414 13.0074L42.4582 12.5048C42.585 12.3791 42.6483 12.1906 42.7117 12.0021L43.3454 11.0596L43.2187 11.1224Z" fill="#EE7D22"/>
<path d="M47.0201 20.2953C46.4498 19.0386 46.83 17.9704 48.0974 17.0907C49.9351 16.3367 51.2025 16.7765 51.8362 18.2846C52.2164 19.7926 51.456 20.8608 49.6183 21.3006C48.6677 21.4263 47.7805 21.1121 47.0201 20.2953ZM47.4637 22.6201C47.9707 22.683 48.4776 22.8086 48.9212 23.06L49.5549 23.2485C49.8084 23.3113 50.0619 23.437 50.3153 23.5626L52.0263 24.0653L52.0897 25.322L52.0263 25.5733L52.0897 26.3273L52.0263 26.5158C52.0897 26.8929 52.1531 27.207 52.0897 27.584L52.1531 29.3434L52.0897 29.5319L52.1531 30.3487L52.0897 30.4744L52.1531 31.1656L52.0897 31.4797L52.1531 32.1709L52.0897 32.5479L52.1531 34.3073L52.2798 34.5586L52.3432 36.1923L52.2798 36.4437L52.4066 38.3287L52.2798 38.4543C51.8362 38.4543 51.456 38.4543 51.0124 38.3287C50.4421 38.203 49.9351 38.1402 49.3648 38.0773L48.9846 38.0145H48.7945L47.4637 22.6201Z" fill="#EF4472"/>
<path d="M61.3418 11.8763L61.5952 11.8135L62.4824 11.8763L62.7359 11.9391L65.5875 12.1905C65.7143 12.5675 65.7777 12.9445 65.7777 13.3215L65.9044 14.2012V14.4525L66.0311 15.7092V15.9605C66.0311 16.149 66.0311 16.3375 66.0945 16.4632C66.0945 16.5889 66.0945 16.903 66.1579 17.4057C66.2212 17.7199 66.2212 18.0969 66.2212 18.4111V18.5996L66.2846 18.9137L66.348 20.0448V20.4218L66.4114 20.7988V21.1758L66.4747 22.3068L66.5381 22.6838L66.6015 23.2493V23.5635L66.6648 24.0033C66.6648 24.1918 66.6648 24.3803 66.6648 24.506L66.7282 24.9458V25.637C66.7916 25.8255 66.7916 26.014 66.7916 26.2653L66.8549 26.5795V26.768L66.9183 27.4592L66.9817 27.8362V28.0875V28.4017L67.0451 29.0301V29.3442L67.1084 29.7212L67.1718 30.0982C67.1084 30.1611 67.1718 30.2867 67.2352 30.4752C67.2352 30.7894 67.2352 31.1036 67.2985 31.4178V31.6691V32.2346V32.3603V32.8001L67.3619 32.9886V33.3028V33.5541C67.3619 33.6798 67.3619 33.8055 67.3619 33.9311L67.4886 35.2506C67.4886 35.502 67.552 35.7533 67.552 36.0047C67.1718 36.0675 66.8549 36.0675 66.4747 36.0047L65.2073 35.879H65.0172H64.637L64.4469 35.5648C62.7993 37.5127 60.7081 38.0782 58.1099 37.1985C55.8919 36.1303 54.6246 34.2453 54.3077 31.5434C54.1176 29.0929 55.1315 27.145 57.2861 25.637C59.2506 24.506 61.2784 24.6945 63.433 26.0768L63.3696 25.5113V25.1343V24.7573L63.3062 24.5688C63.2429 24.3175 63.2429 24.0661 63.2429 23.8776L63.1795 23.6891L62.7359 22.998C62.6725 22.6838 62.6092 22.3696 62.6092 22.1811L62.6725 22.0555C62.6092 21.867 62.6092 21.6156 62.5458 21.3643L62.4824 20.7988V20.5474C62.4191 20.1076 62.3557 19.6678 62.2923 19.1651L62.1656 18.1597V18.0341L62.1022 17.3429L62.0388 17.0287V16.8402C61.9755 16.6517 61.9755 16.4632 61.9755 16.2119C61.9755 16.0234 61.9755 15.8977 61.9121 15.7092C61.8487 15.5835 61.8487 15.4579 61.8487 15.3322L61.722 14.2012C61.722 14.0755 61.722 13.9498 61.6586 13.7613L61.5952 13.3843L61.5319 13.0073L61.4051 12.2533L61.4685 12.1276L61.3418 11.8763ZM59.8209 28.1504C59.504 28.1504 59.1872 28.1504 58.8703 28.2132C57.8564 29.0301 57.4762 30.1611 57.6663 31.5434C57.7297 32.8629 58.3634 33.9311 59.5674 34.6223C59.8843 34.6851 60.2011 34.6223 60.518 34.5595C61.5319 33.7426 61.9121 32.6116 61.722 31.2292C61.722 29.9097 61.0249 28.9044 59.8209 28.1504Z" fill="#F7D30C"/>
<path d="M74.2701 16.4005C76.8683 16.212 79.4664 16.7775 82.0646 18.1598L80.7338 21.3644L80.4803 21.9927C80.3536 22.244 80.2269 22.5582 80.1001 22.8095C76.4247 20.2962 73.9532 21.867 72.7492 27.6478L72.5591 28.2761V28.4646L72.369 29.3443C72.4957 31.6692 73.3195 33.8055 74.7137 35.8791L75.4741 36.6331L76.2346 37.1357C76.3613 37.1986 76.488 37.2614 76.6148 37.3243L77.1217 37.5128L77.7554 37.6384L77.9455 37.7013H78.2624L78.3891 37.7641L79.5298 37.7013C79.5932 37.6384 79.6565 37.5756 79.7199 37.5128L79.5298 36.9472L79.4664 36.5702L79.4031 36.3817C79.4031 36.1932 79.3397 36.0047 79.2763 35.8162V35.6277C79.2129 35.4392 79.1496 35.2507 79.1496 35.0622L79.0862 34.8737C79.0228 34.6852 78.9595 34.4967 78.9595 34.3082L78.8327 33.8684V33.6799L78.6426 33.1144C78.6426 32.9887 78.5792 32.863 78.5792 32.7374C78.5792 32.6117 78.5792 32.5489 78.5159 32.486C78.4525 32.3604 78.4525 32.2347 78.4525 32.109L78.3258 32.0462L77.9455 32.2347C77.8188 32.2975 77.6921 32.3603 77.502 32.4232L77.3118 32.486L76.1078 33.0515L75.791 32.2347C75.7276 32.0462 75.6642 31.8577 75.6009 31.6692L75.284 30.7895C75.2206 30.601 75.1573 30.4753 75.0939 30.2868L74.5869 28.9045L74.5236 28.6531L76.4247 27.962L76.8049 27.8363C76.995 27.7106 77.2485 27.6478 77.502 27.585L81.3042 26.1398C81.621 26.0769 81.9379 25.9513 82.2547 25.7628L82.3814 25.6999L83.4587 25.3229L83.9657 26.8309C84.0291 27.0194 84.0924 27.2079 84.1558 27.3964L84.3459 27.962L84.4727 28.1505L84.536 28.339L84.5994 28.5275L84.9796 29.7213L85.043 29.9098C84.7895 30.0983 84.5994 30.224 84.3459 30.3497L82.8884 31.2293L83.2053 32.2347C83.2686 32.486 83.332 32.6745 83.3954 32.9259C83.3954 33.1144 83.4587 33.3029 83.5221 33.4285L83.5855 33.617L83.6488 33.8055L83.7122 33.994L84.1558 35.6277C84.2192 35.8791 84.2825 36.1304 84.3459 36.3189L84.5994 37.0729L84.7261 37.5128L84.7895 37.8269L85.4232 40.0261C85.4232 40.1518 85.4866 40.2146 85.5499 40.3403L85.9935 41.9111L86.0569 42.2253C86.1836 42.4767 86.1836 42.728 86.1836 42.9793C82.7617 44.0475 79.2129 43.9847 75.4741 42.6023L73.1294 41.2828C72.9393 41.0943 72.7492 40.9058 72.4957 40.7801L72.0521 40.3403C71.9254 40.2146 71.7987 40.1518 71.6719 39.9633L71.2917 39.5863L71.165 39.4606C67.9965 36.5074 66.3488 32.863 66.3488 28.5903C66.2855 24.8202 67.6162 21.3015 70.2144 17.9713H70.4045C71.7987 17.2173 72.9393 16.6518 74.2701 16.4005Z" fill="#9BCD64"/>
<path d="M86.2464 32.548C85.1057 27.8983 86.4365 24.8194 90.2387 23.4371C93.5973 22.7459 95.942 24.1282 97.2728 27.4584C97.3995 27.7098 97.5896 28.5266 97.9065 29.909L97.2094 30.0975L96.8926 30.2231L96.5757 30.3488L96.2589 30.4745L95.942 30.6002L95.4984 30.7258L95.3083 30.7887L94.9281 30.9143L93.8508 31.2285C93.534 31.3542 93.2171 31.417 92.9003 31.4798L92.3933 31.6055L92.0764 31.7312L91.823 31.794L91.5061 31.9197L90.5556 32.2338C90.3655 34.056 90.9992 35.1242 92.4567 35.5012C94.1677 35.3756 95.8786 34.7472 97.4629 33.4905L97.5896 34.5587V34.9357L97.653 35.4384V35.6269L97.7797 36.8836C97.653 37.0092 97.4629 37.1349 97.2728 37.2606L96.5757 37.5747L96.2589 37.7004L95.4351 37.9518C95.2449 37.9518 95.1182 38.0146 94.9281 38.0774L94.8014 38.1403L94.2944 38.3288L92.2666 38.6429H91.6329C88.8446 37.5748 87.0702 35.6897 86.2464 32.548ZM93.5973 27.8983C93.1537 26.5788 92.2032 26.2018 90.7457 26.6416C89.9219 27.4584 89.7318 28.5266 90.2387 29.909L93.9775 28.7151L93.5973 27.8983Z" fill="#E14E3A"/>
<path d="M109.313 22.6201H109.63C109.63 22.8086 109.63 23.06 109.566 23.2485L109.44 23.814L109.376 24.1281L109.249 24.568V24.7565C109.186 24.8193 109.186 24.8821 109.186 24.945L109.059 25.5733L108.996 25.7618L108.933 25.9503L108.869 26.3902C108.806 26.5787 108.743 26.7672 108.743 26.9557C108.679 27.207 108.616 27.4584 108.552 27.7097L108.489 27.8354C108.489 28.0239 108.426 28.2124 108.362 28.4009V28.5265V28.9035C108.299 29.0292 108.299 29.1549 108.299 29.3434L108.172 29.6576L108.109 29.9717L108.045 30.2859C107.982 30.4116 107.982 30.5372 107.982 30.7257C107.982 30.7257 107.919 30.8514 107.919 31.0399L107.855 31.2912C107.792 31.4169 107.792 31.5426 107.729 31.6054C107.729 31.7939 107.665 31.9824 107.602 32.1709L107.538 32.4851L107.475 32.7993L107.285 33.6161L107.222 33.8674L107.158 34.0559C107.158 34.2444 107.095 34.433 107.032 34.6215L106.841 35.564L106.778 35.7525L106.715 36.0038V36.1923L106.588 36.5065L106.525 36.8207L106.461 37.1977L106.398 37.449L106.208 38.1402V38.3287C106.144 38.5172 106.081 38.7057 106.081 38.8313L106.018 39.0198C105.954 39.1455 105.954 39.2712 105.954 39.334L105.828 39.6482L105.764 39.9624L105.321 39.2712L105.257 39.2084C104.94 38.7057 104.687 38.2658 104.433 37.8888L104.37 37.7003C104.117 37.3862 103.926 37.072 103.736 36.7578L103.673 36.695L103.61 36.5065L103.293 36.0038L103.166 35.8153L102.279 34.3073L102.215 34.2444L101.835 33.5533L101.708 33.3648V33.6161V33.9931C101.772 34.1188 101.772 34.3073 101.772 34.433L101.835 34.6215L101.899 34.81C101.899 35.0613 101.962 35.187 101.962 35.3126L102.025 35.5011L102.152 36.4436C102.152 36.5693 102.215 36.6321 102.215 36.7578V36.9463C102.279 37.072 102.279 37.1977 102.279 37.3862C102.342 37.6375 102.342 37.826 102.342 38.0773L102.406 38.3287V38.5172L102.532 39.3969C102.596 39.6482 102.596 39.8367 102.659 40.088L102.722 40.465V40.7792L102.215 40.842H102.089L101.392 40.9677H101.138H100.948L100.758 41.0305C100.251 41.0934 99.8707 41.0934 99.5539 41.1562L99.3638 41.219L99.1103 41.2819V40.842V40.5279V40.2137V39.8995C99.1103 39.6482 99.1103 39.4597 99.1103 39.2712L99.0469 39.2084C99.0469 38.8942 99.0469 38.7057 99.0469 38.5172C98.9835 38.2658 98.9835 38.0145 98.9835 37.7632L98.9202 37.449L98.8568 37.2605L98.7934 35.7525V35.6268V35.3126C98.7301 35.2498 98.7301 35.1241 98.7301 35.0613C98.7301 34.8728 98.7301 34.7471 98.7301 34.5586L98.6667 34.4958V34.2444L98.6033 34.1188V33.8046C98.6033 33.6789 98.6033 33.5533 98.6033 33.4904L98.54 33.1763L98.4766 32.1081V31.9196L98.4132 31.7311V31.4169C98.3498 31.1656 98.3498 30.9142 98.3498 30.6629V30.3487L98.2865 30.1602V29.9089L98.2231 29.7832V29.2177V28.7779L98.1597 28.4637V28.2752C98.1597 28.0239 98.1597 27.7097 98.0964 27.4584V27.0185V26.5787V26.2645V25.9503V25.7618C98.0964 25.5105 98.0964 25.322 98.033 25.1963V25.0078L97.9696 24.3795V24.191L97.9062 24.0025V23.5626C98.0964 23.7511 98.2231 23.9396 98.3498 24.191L98.7934 24.7565L98.8568 24.8821C98.9835 25.0078 99.1103 25.1963 99.237 25.3848L99.5539 25.8247C99.6172 25.9503 99.744 26.076 99.8074 26.2017L99.9975 26.5158L100.124 26.7043L100.568 27.2699L101.011 27.8982L101.201 28.0867L101.582 28.6522L101.835 29.0292C101.899 29.1549 102.025 29.2805 102.089 29.4062L102.659 30.1602C102.786 30.2859 102.849 30.4116 102.976 30.5372L103.546 31.3541L103.736 31.6054C103.863 31.7939 103.99 31.9196 104.053 31.9824L104.497 32.6108L104.687 32.8621L104.814 30.1602C104.877 29.9089 104.877 29.5947 104.877 29.3434L105.004 26.83L105.067 26.5787L105.257 23.5626C105.447 23.4998 105.701 23.437 105.891 23.437C106.144 23.3741 106.398 23.3113 106.588 23.3113C106.778 23.2485 107.032 23.2485 107.222 23.1856H107.412L107.855 23.06L108.045 22.9971C108.743 22.7458 109.059 22.683 109.313 22.6201Z" fill="#00B3B9"/>
<path d="M110.074 20.2953C109.503 19.0386 109.884 17.9704 111.151 17.0907C112.989 16.3367 114.256 16.7765 114.89 18.2846C115.27 19.7926 114.51 20.8608 112.672 21.3006C111.658 21.4263 110.834 21.1121 110.074 20.2953ZM110.454 22.6201C110.961 22.683 111.468 22.8086 111.912 23.06L112.545 23.2485C112.799 23.3113 113.052 23.437 113.306 23.5626L115.017 24.0653V25.322V25.5733L115.08 26.3273L115.017 26.5158C115.08 26.8929 115.08 27.207 115.08 27.584L115.143 29.3434L115.08 29.5319L115.143 30.3487L115.08 30.4744L115.143 31.1656L115.08 31.4797L115.143 32.1709L115.08 32.5479L115.143 34.3073L115.334 34.5586L115.397 36.1923L115.334 36.4437L115.46 38.3287L115.334 38.4543C114.89 38.4543 114.51 38.4543 114.066 38.3287C113.496 38.203 112.989 38.1402 112.419 38.0773L112.038 38.0145L111.785 37.9517L110.454 22.6201Z" fill="#EE7D22"/>
<path d="M125.092 22.3066H129.021C129.021 22.4951 129.084 22.7465 129.084 22.935L129.148 23.1863V23.5005L129.211 23.6262V27.6475L129.148 27.8361L129.021 29.0299L128.894 29.8467V29.9724L128.831 30.4123L128.767 30.6636L128.704 30.9149C128.641 31.1034 128.577 31.3548 128.514 31.5433L128.261 32.2973V32.4229C128.197 32.6115 128.134 32.8628 128.007 33.0513L127.627 33.931C127.5 34.1823 127.373 34.3708 127.183 34.5593L126.55 35.439L126.486 35.5018C125.852 36.0673 125.092 36.5072 124.268 36.6957L123.888 36.8842C123.698 37.0098 123.508 37.0727 123.254 37.1355L122.811 37.2612H121.417C121.163 37.1984 120.91 37.1355 120.656 37.0098C119.832 36.5072 119.135 35.7532 118.692 34.9363L118.311 34.0566L118.248 33.8053L118.185 33.6796L117.931 32.9885L117.804 32.4858V32.3601L117.678 31.9831V31.7946V31.6689L117.551 31.2919C117.551 31.2291 117.551 31.1034 117.488 31.0406C117.424 30.8521 117.424 30.7264 117.424 30.5379C117.361 30.3494 117.361 30.1609 117.361 29.9096L117.298 29.6582L117.234 29.5326V29.1556C117.171 28.9671 117.171 28.8414 117.171 28.6529C117.107 28.4644 117.107 28.2131 117.171 28.0246L117.107 27.9617V25.197L117.804 25.0085C117.868 24.9457 117.995 24.9457 118.058 24.9457L118.375 24.82L118.692 24.7572C118.882 24.7572 119.009 24.6943 119.135 24.6315L120.973 24.1288L121.163 24.066L121.924 23.8775C121.924 24.1288 121.924 24.3802 121.86 24.6315L121.797 24.82L121.67 25.7625L121.607 26.0767L121.543 26.3909V26.7679L121.48 26.8935L121.417 27.5847C121.417 27.6476 121.417 27.7732 121.417 27.8361C121.417 27.9617 121.417 28.0246 121.353 28.1502V28.9671L121.29 29.0299C121.29 29.3441 121.29 29.5954 121.353 29.9096V30.5379L121.417 30.8521V30.9778C121.417 31.1663 121.48 31.4176 121.543 31.6061L121.733 32.1716L122.05 32.7371C122.24 32.8628 122.367 32.9885 122.621 33.1141C122.874 33.177 123.191 33.177 123.444 33.1141L123.888 32.8C124.205 32.423 124.458 32.0459 124.585 31.6061L124.648 31.5433C124.648 31.4176 124.712 31.3548 124.712 31.2291L124.775 30.9149L124.839 30.7264L124.902 30.4751C124.902 30.2238 124.965 29.9096 125.029 29.6582V29.5326L125.092 29.4697C125.092 29.2184 125.155 28.9671 125.155 28.7786V28.3387C125.155 28.1502 125.155 27.9617 125.219 27.7104L125.155 23.9403C125.155 23.8147 125.155 23.6262 125.155 23.5005L125.092 22.6836C125.092 22.558 125.092 22.4951 125.092 22.3066Z" fill="#EF4472"/>
<path d="M141.442 24.6308C142.582 24.945 143.659 25.5105 144.483 26.3902L144.103 26.83C144.04 26.9557 143.976 27.0185 143.85 27.0813L143.723 27.207C143.659 27.2698 143.596 27.3327 143.533 27.3955C143.469 27.4583 143.406 27.4583 143.343 27.584L142.392 28.338C142.265 28.4009 142.139 28.5265 142.012 28.6522L141.695 28.9035C141.632 28.9664 141.568 29.0292 141.505 29.092L140.491 28.8407L140.301 28.7779L139.921 28.715C139.794 28.715 139.604 28.715 139.477 28.6522H139.35H138.21L137.766 28.7779H137.703L137.449 28.8407L136.942 29.0292C136.816 29.092 136.689 29.1549 136.562 29.2805L136.435 29.3434C136.625 29.7204 136.942 29.9717 137.259 30.1602C137.386 30.2231 137.513 30.2859 137.639 30.3487L137.766 30.4116L137.956 30.4744C138.02 30.5372 138.083 30.5372 138.21 30.6001L138.527 30.7886L139.097 30.9771L139.287 31.0399L140.047 31.3541L140.111 31.4169L140.301 31.4797C140.428 31.5426 140.554 31.6054 140.681 31.6682L141.251 31.9824C141.442 32.0452 141.632 32.1709 141.758 32.2966L142.582 32.8621L142.709 32.9878L142.836 33.1134L142.962 33.2391L143.279 33.6161L143.343 33.7418L143.469 33.8674L143.596 34.0559L143.786 34.3701C143.85 34.4958 143.913 34.6215 143.976 34.81V34.9356L144.04 35.2498V35.6268L144.103 35.7525L144.04 36.318C144.04 36.3808 144.04 36.4436 143.976 36.5065L143.913 36.6321V36.695L143.85 36.8835C143.786 37.0092 143.659 37.1348 143.596 37.2605L143.533 37.3233C143.469 37.449 143.406 37.5118 143.343 37.6375V37.7003L143.153 37.9517C143.026 38.0773 142.962 38.1402 142.836 38.2658C140.111 40.2765 136.879 40.7792 133.203 39.7739C133.013 39.711 132.76 39.711 132.57 39.6482L131.619 39.334C131.429 39.2712 131.302 39.2083 131.112 39.1455L130.732 39.0198L130.542 38.8942L130.225 38.7685C130.225 38.7685 130.162 38.7057 130.035 38.7057L129.908 38.6428L130.098 38.3915V38.3287L130.352 37.9517C130.415 37.826 130.479 37.6375 130.605 37.5118C130.669 37.3862 130.732 37.2605 130.795 37.1348L130.985 36.695C131.049 36.6321 131.112 36.5693 131.112 36.4436C131.176 36.318 131.302 36.1923 131.366 36.0038L131.492 35.8153L131.556 35.6896L131.683 35.4383C131.746 35.3126 131.873 35.187 131.873 35.0613L131.936 34.9985C134.281 36.8206 136.752 37.072 139.414 35.6896L139.604 35.5011C139.287 35.187 138.907 34.9356 138.4 34.81C138.21 34.81 138.083 34.7471 137.956 34.6843C136.118 34.4958 134.344 33.8046 132.887 32.7364L131.873 31.6682L131.492 31.0399L131.429 30.9771L131.302 30.7257C131.239 30.6001 131.176 30.4744 131.112 30.3487L131.049 30.2231L130.985 30.1602L130.922 30.0345V29.9089L132.126 26.6415L133.14 25.8875C135.802 24.4423 138.463 24.1281 141.442 24.6308Z" fill="#F7D30C"/>
</g>
<defs>
<clipPath id="clip0_13_4">
<rect width="173" height="47" fill="white"/>
</clipPath>
</defs>
</svg>
